<?xml version="1.0" encoding="UTF-8" standalone="no"?>
<svg data-name="Layer 1" width="620" height="628.97906" viewBox="0 0 620 628.97906" version="1.1"
  xmlns="http://www.w3.org/2000/svg" xmlns:svg="http://www.w3.org/2000/svg">
  <path
    d="m 157.397,391.77773 c 1.0332,2.166 2.123,4.343 3.24121,6.466 l 1.061,-0.559 c -1.11035,-2.109 -2.19336,-4.27 -3.21924,-6.423 z"
    fill="#cccccc" id="path245" />
  <path
    d="m 164.1348,404.57674 c 1.20411,2.079 2.46729,4.161 3.75342,6.188 l 1.0127,-0.641 c -1.27686,-2.014 -2.52783,-4.082 -3.728,-6.147 z"
    fill="#cccccc" id="path247" />
  <path
    d="m 151.71391,378.4897 c 0.85107,2.23505 1.7622,4.49 2.707,6.7 l 1.104,-0.471 c -0.939,-2.195 -1.84277,-4.435 -2.689,-6.656 z"
    fill="#cccccc" id="path249" />
  <path
    d="m 171.89115,416.79372 c 1.3667,1.975 2.79395,3.95 4.23975,5.87 l 0.958,-0.722 c -1.436,-1.907 -2.853,-3.869 -4.21094,-5.831 z"
    fill="#cccccc" id="path251" />
  <path
    d="m 298.01225,135.80275 0.145,1.191 v 0.007 c 2.3706,-0.291 4.77978,-0.535 7.165,-0.73 l -0.10009,-1.2 c -2.39693,0.19501 -4.82316,0.44098 -7.20991,0.732 z"
    fill="#cccccc" id="path253" />
  <path
    d="m 141.34916,321.87477 -1.2002,0.049 c 0.0982,2.404 0.24512,4.835 0.439,7.235 l 1.19726,-0.097 c -0.19241,-2.38103 -0.33596,-4.799 -0.43606,-7.187 z"
    fill="#cccccc" id="path255" />
  <path
    d="m 147.11283,364.74471 c 0.67041,2.309 1.397,4.637 2.16113,6.918 l 1.13916,-0.38105 c -0.75927,-2.266 -1.481,-4.578 -2.147,-6.871 z"
    fill="#cccccc" id="path257" />
  <path
    d="m 141.19926,314.48079 c 0,-2.329 0.0449,-4.684 0.13379,-7 l -1.2002,-0.046 c -0.0898,2.331 -0.13476,4.702 -0.13476,7.043 v 0.2 h 1.20019 z"
    fill="#cccccc" id="path259" />
  <path
    d="m 141.31889,336.36971 c 0.29,2.392 0.63232,4.806 1.01709,7.175 l 1.18408,-0.19195 c -0.38184,-2.353 -0.72217,-4.75 -1.01026,-7.127 z"
    fill="#cccccc" id="path261" />
  <path
    d="m 141.75492,300.29274 c 0.188,-2.387 0.42627,-4.797 0.70215,-7.165 l -1.19189,-0.142 c -0.28418,2.38306 -0.52295,4.812 -0.71241,7.212 l 1.2002,0.094 z"
    fill="#cccccc" id="path263" />
  <path
    d="m 180.60111,428.36574 c 1.52,1.856 3.1001,3.715 4.69971,5.515 l 0.896,-0.796 c -1.58887,-1.791 -3.15967,-3.634 -4.667,-5.478 z"
    fill="#cccccc" id="path265" />
  <path
    d="m 277.02787,489.31978 c 2.332,0.57 4.71143,1.103 7.07324,1.581 l 0.2378,-1.176 c -2.34571,-0.471 -4.709,-1.00305 -7.02588,-1.57105 z"
    fill="#cccccc" id="path267" />
  <path
    d="m 269.64115,141.61775 0.335,1.152 c 2.292,-0.66895 4.63086,-1.295 6.95313,-1.87 l -0.28809,-1.165 c -2.33695,0.58301 -4.69193,1.21198 -7.00004,1.883 z"
    fill="#cccccc" id="path269" />
  <path
    d="m 283.709,138.13875 0.24121,1.175 -0.001,0.001 c 2.33886,-0.479 4.71875,-0.914 7.08056,-1.302 l -0.19287,-1.184 c -2.3769,0.388 -4.77485,0.828 -7.1279,1.31 z"
    fill="#cccccc" id="path271" />
  <path
    d="m 291.232,492.19777 c 2.37012,0.375 4.78418,0.713 7.17725,1 l 0.1416,-1.185 c -2.376,-0.286 -4.7749,-0.622 -7.12891,-1 z"
    fill="#cccccc" id="path273" />
  <path
    d="m 263.10209,485.30379 c 2.27881,0.758 4.60791,1.481 6.92187,2.149 l 0.332,-1.153 c -2.29786,-0.663 -4.61084,-1.381 -6.875,-2.135 z"
    fill="#cccccc" id="path275" />
  <path
    d="m 200.66605,449.24074 c 1.80079,1.6 3.65918,3.178 5.522,4.7 l 0.76318,-0.932 c -1.8501,-1.512 -3.69629,-3.083 -5.48535,-4.668 z"
    fill="#cccccc" id="path277" />
  <path
    d="m 211.89994,458.41573 c 1.91895,1.443 3.89893,2.872 5.8833,4.243 l 0.68164,-0.98706 c -1.9707,-1.363 -3.937,-2.781 -5.84375,-4.215 z"
    fill="#cccccc" id="path279" />
  <path
    d="m 191.07816,438.36775 -0.86523,0.832 c 1.66992,1.736 3.395,3.46 5.126,5.123 l 0.83105,-0.866 c -1.71877,-1.65101 -3.43313,-3.36298 -5.09182,-5.089 z"
    fill="#cccccc" id="path281" />
  <path
    d="m 249.5142,480.15474 c 2.2207,0.946 4.48877,1.858 6.73974,2.711 l 0.43018,-1.119 c -2.24121,-0.846 -4.49414,-1.75195 -6.70019,-2.692 z"
    fill="#cccccc" id="path283" />
  <path
    d="m 236.3931,473.92574 c 2.12989,1.12 4.315,2.212 6.49512,3.247 l 0.51367,-1.085 c -2.165,-1.024 -4.335,-2.112 -6.45068,-3.224 z"
    fill="#cccccc" id="path285" />
  <path
    d="m 223.83305,466.66274 c 2.02783,1.285 4.11718,2.549 6.208,3.758 l 0.6001,-1.038 c -2.07715,-1.202 -4.15185,-2.458 -6.166,-3.734 z"
    fill="#cccccc" id="path287" />
  <path
    d="m 143.64213,350.67372 c 0.481,2.355 1.01611,4.733 1.59277,7.07 l 1.165,-0.287 c -0.57178,-2.323 -1.104,-4.684 -1.582,-7.023 z"
    fill="#cccccc" id="path289" />
  <path
    d="m 218.28812,167.41377 c 1.96387,-1.362 3.98,-2.699 5.99073,-3.976 l -0.64307,-1.013 c -2.02393,1.282 -4.05371,2.629 -6.03174,4 l 0.68408,0.986 z"
    fill="#cccccc" id="path291" />
  <path
    d="m 143.45609,285.99977 c 0.38086,-2.36005 0.80811,-4.743 1.28076,-7.084 l -1.17578,-0.237 c -0.47607,2.356 -0.91015,4.756 -1.29,7.132 l 1.18506,0.19 z"
    fill="#cccccc" id="path293" />
  <path
    d="m 190.94828,190.71974 -0.86621,-0.831 c -1.666,1.737 -3.31885,3.531 -4.91211,5.331 l 0.89893,0.799 c 1.57959,-1.79265 3.22461,-3.57329 4.87939,-5.299 z"
    fill="#cccccc" id="path295" />
  <polygon points="96.037,85.63 96.036,85.629 " fill="#cccccc" id="polygon297" transform="translate(100,99.9997)" />
  <path
    d="m 236.71,156.22377 -0.56006,-1.061 c -2.12988,1.118 -4.25488,2.3 -6.33008,3.5 l 0.6001,1.038 c 2.06104,-1.193 4.17627,-2.36402 6.29004,-3.477 z"
    fill="#cccccc" id="path299" />
  <path
    d="m 201.32621,180.74574 -0.80029,-0.9 c -1.79883,1.598 -3.58985,3.253 -5.3208,4.919 l 0.83105,0.864 c 1.71973,-1.65497 3.49902,-3.29999 5.29004,-4.883 z"
    fill="#cccccc" id="path301" />
  <path
    d="m 498.65727,292.39174 c -0.29,-2.383 -0.63624,-4.797 -1.02442,-7.175 l -1.18457,0.194 c 0.38672,2.362 0.72852,4.759 1.01758,7.126 z"
    fill="#cccccc" id="path303" />
  <path
    d="m 498.6392,306.88478 1.20166,-0.0521 c -0.0996,-2.399 -0.24561,-4.834 -0.4458,-7.23395 l -1.2002,0.1 c 0.19629,2.38596 0.34424,4.80302 0.44434,7.18601 z"
    fill="#cccccc" id="path305" />
  <path
    d="m 263.104,144.92177 -0.38086,-1.138 c -2.28222,0.766 -4.57812,1.58795 -6.82324,2.444 l 0.42725,1.121 c 2.23099,-0.84802 4.51078,-1.66699 6.77685,-2.427 z"
    fill="#cccccc" id="path307" />
  <path
    d="m 243.128,152.99776 c 2.14892,-1.025 4.3501,-2.021 6.543,-2.96 l -0.47168,-1.1 c -2.208,0.946 -4.42432,1.948 -6.58838,2.98 l 0.51709,1.083 z"
    fill="#cccccc" id="path309" />
  <path
    d="m 206.79789,176.07173 c 1.84912,-1.514 3.752,-3.01 5.65527,-4.443 l -0.72216,-0.958 c -1.916,1.445 -3.832,2.95 -5.69385,4.475 l 0.76074,0.928 z"
    fill="#cccccc" id="path311" />
  <polygon points="55.389,144.552 55.388,144.554 55.397,144.555 " fill="#cccccc" id="polygon313"
    transform="translate(100,99.9997)" />
  <path
    d="m 158.35893,237.97481 -1.084,-0.514 c -1.03271,2.178 -2.03467,4.407 -2.978,6.624 l 1.09229,0.46662 c 0.93846,-2.20126 1.93308,-4.41445 2.96971,-6.57662 z"
    fill="#cccccc" id="path315" />
  <path
    d="m 146.30424,271.88777 c 0.56689,-2.32 1.18994,-4.661 1.8501,-6.95 l -1.15332,-0.332 c -0.66309,2.308 -1.292,4.664 -1.8628,7 l 1.166,0.285 z"
    fill="#cccccc" id="path317" />
  <path
    d="m 152.70316,251.25075 -1.123,-0.424 c -0.854,2.259 -1.67188,4.563 -2.43116,6.848 l 1.13916,0.379 c 0.75192,-2.26998 1.56491,-4.55801 2.415,-6.803 z"
    fill="#cccccc" id="path319" />
  <polygon points="61.572,131.516 61.569,131.521 61.576,131.518 " fill="#cccccc" id="polygon321"
    transform="translate(100,99.9997)" />
  <polygon points="86.069,96.019 86.068,96.02 86.07,96.02 " fill="#cccccc" id="polygon323"
    transform="translate(100,99.9997)" />
  <path
    d="m 181.41117,201.50575 -0.93017,-0.759 c -1.52,1.863 -3.02491,3.784 -4.4712,5.709 l 0.95606,0.71851 c 1.43603,-1.91082 2.9292,-3.81762 4.44531,-5.66851 z"
    fill="#cccccc" id="path325" />
  <path
    d="m 165.0518,225.2018 -1.03858,-0.6 c -1.20019,2.088 -2.38135,4.227 -3.5,6.359 l 1.0586,0.55481 c 1.11035,-2.11832 2.28027,-4.23856 3.47998,-6.31381 z"
    fill="#cccccc" id="path327" />
  <polygon points="76.966,107.175 76.963,107.178 76.969,107.177 " fill="#cccccc" id="polygon329"
    transform="translate(100,99.9997)" />
  <path
    d="m 172.75687,213.02174 -0.98681,-0.682 c -1.36621,1.98 -2.71289,4.017 -4,6.052 l 1.01025,0.63977 c 1.27832,-2.0202 2.61377,-4.04144 3.97656,-6.00977 z"
    fill="#cccccc" id="path331" />
  <polygon points="68.78,119.032 68.777,119.037 68.784,119.034 " fill="#cccccc" id="polygon333"
    transform="translate(100,99.9997)" />
  <path
    d="m 463.7559,206.12776 -0.957,0.723 c 1.438,1.904 2.85693,3.865 4.21826,5.826 l 0.98486,-0.683 c -1.37015,-1.97501 -2.79886,-3.94901 -4.24612,-5.866 z"
    fill="#cccccc" id="path335" />
  <path
    d="m 467.13676,416.09169 0.9873,0.682 v 0.005 c 1.37207,-1.984 2.71973,-4.019 4.00684,-6.053 l -1.01367,-0.642 c -1.28023,2.01496 -2.61723,4.03693 -3.98047,6.00794 z"
    fill="#cccccc" id="path337" />
  <path
    d="m 472.0098,218.02278 -1.01171,0.644 c 1.2788,2.011 2.53515,4.077 3.73486,6.143 l 1.03711,-0.603 c -1.20801,-2.08402 -2.47315,-4.16001 -3.76026,-6.184 z"
    fill="#cccccc" id="path339" />
  <path
    d="m 479.27689,230.53877 -1.061,0.56 c 1.11426,2.108 2.19922,4.268 3.22607,6.419 l 1.083,-0.516 c -1.0342,-2.16301 -2.12696,-4.34001 -3.24807,-6.463 z"
    fill="#cccccc" id="path341" />
  <path
    d="m 474.85014,403.92476 1.03808,0.6 h 0.005 c 1.21,-2.09 2.395,-4.224 3.50391,-6.353 l -1.062,-0.559 c -1.11085,2.11199 -2.28517,4.23601 -3.48487,6.312 z"
    fill="#cccccc" id="path343" />
  <path
    d="m 454.57133,194.92775 -0.90039,0.8 c 1.58691,1.785 3.15918,3.626 4.67285,5.473 l 0.92724,-0.763 c -1.52003,-1.85998 -3.10009,-3.71001 -4.6997,-5.51 z"
    fill="#cccccc" id="path345" />
  <path
    d="m 462.92,421.93776 c -1.43506,1.906 -2.93213,3.813 -4.44824,5.667 l 0.9292,0.759 v -0.004 c 1.52588,-1.862 3.0332,-3.781 4.478,-5.7 z"
    fill="#cccccc" id="path347" />
  <path
    d="m 443.813,443.45973 c -1.72217,1.654 -3.502,3.297 -5.29,4.881 l 0.79687,0.89637 c 1.79932,-1.59442 3.59082,-3.24695 5.32422,-4.91138 z"
    fill="#cccccc" id="path349" />
  <path
    d="m 444.51322,184.49379 -0.83008,0.86694 c 1.72413,1.651 3.439,3.361 5.1001,5.084 l 0.86182,-0.833 c -1.6709,-1.73494 -3.39795,-3.45595 -5.13184,-5.11794 z"
    fill="#cccccc" id="path351" />
  <path
    d="m 481.56791,391.16274 1.084,0.516 v -0.001 c 1.03614,-2.177 2.03614,-4.403 2.981,-6.621 l -1.09961,-0.471 c -0.94049,2.20401 -1.93853,4.41598 -2.96539,6.577 z"
    fill="#cccccc" id="path353" />
  <path
    d="m 448.91019,438.37178 0.86475,0.832 0.002,0.003 c 1.665,-1.732 3.31836,-3.525 4.918,-5.325 l -0.8999,-0.8 c -1.58499,1.79 -3.23099,3.56997 -4.8848,5.29 z"
    fill="#cccccc" id="path355" />
  <polygon points="396.398,250.477 396.398,250.478 396.401,250.478 " fill="#cccccc" id="polygon357"
    transform="translate(100,99.9997)" />
  <polygon points="398.708,236.169 398.707,236.169 " fill="#cccccc" id="polygon359"
    transform="translate(100,99.9997)" />
  <polygon points="339.32,349.237 339.318,349.239 339.323,349.241 " fill="#cccccc" id="polygon361"
    transform="translate(100,99.9997)" />
  <path
    d="m 496.51322,343.15669 c -0.38135,2.362 -0.814,4.745 -1.28906,7.082 l 1.17383,0.23841 c 0.48,-2.35285 0.917,-4.75159 1.30029,-7.1294 z"
    fill="#cccccc" id="path363" />
  <path
    d="m 498.231,328.86269 c -0.189,2.378 -0.43018,4.788 -0.71485,7.163 l 1.19092,0.14288 c 0.28711,-2.392 0.52881,-4.81793 0.72412,-7.21087 z"
    fill="#cccccc" id="path365" />
  <path
    d="m 498.79691,314.0768 v 0.4 c 0,2.387 -0.0479,4.809 -0.14209,7.2 l 1.2002,0.047 h 0.002 c 0.0952,-2.407 0.14307,-4.844 0.14014,-7.252 v -0.395 z"
    fill="#cccccc" id="path367" />
  <path
    d="m 494.71879,271.02376 -1.165,0.289 c 0.57324,2.314 1.1084,4.676 1.59033,7.021 l 1.17481,-0.242 c -0.48393,-2.35999 -1.02202,-4.73798 -1.60014,-7.068 z"
    fill="#cccccc" id="path369" />
  <path
    d="m 487.23,377.89375 1.12207,0.425 v -0.001 c 0.85693,-2.26 1.67773,-4.563 2.439,-6.844 l -1.13818,-0.38 c -0.75689,2.26698 -1.5718,4.55501 -2.42289,6.8 z"
    fill="#cccccc" id="path371" />
  <path
    d="m 485.49711,243.58675 -1.1001,0.473 c 0.93994,2.183 1.84717,4.422 2.7002,6.654 l 1.11377,-0.427 c -0.85791,-2.24901 -1.77098,-4.49999 -2.71387,-6.7 z"
    fill="#cccccc" id="path373" />
  <path
    d="m 490.66508,257.11073 -1.13819,0.382 c 0.76221,2.269 1.48584,4.577 2.1543,6.869 l 1.15186,-0.335 c -0.66797,-2.30796 -1.40186,-4.63499 -2.16797,-6.916 z"
    fill="#cccccc" id="path375" />
  <path
    d="m 493.65092,357.26271 c -0.57178,2.326 -1.19678,4.665 -1.85889,6.955 l 1.15283,0.333 v -10e-4 c 0.666,-2.304 1.29541,-4.66 1.8711,-7.001 z"
    fill="#cccccc" id="path377" />
  <path
    d="m 312.50492,135.82674 v 0.006 c 2.3833,-0.098 4.80615,-0.15 7.19727,-0.161 v -1.2 c -2.40918,0.004 -4.84619,0.055 -7.2461,0.155 z"
    fill="#cccccc" id="path379" />
  <path
    d="m 341.253,136.92378 c 2.37207,0.28 4.771,0.614 7.13086,0.99 l 0.188,-1.182 c -2.37793,-0.382 -4.78955,-0.71705 -7.17774,-1 z"
    fill="#cccccc" id="path381" />
  <path
    d="m 369.44926,142.60573 c 2.29687,0.659 4.61084,1.375 6.87793,2.127 l 0.377,-1.139 c -2.28223,-0.757 -4.61133,-1.477 -6.92285,-2.141 z"
    fill="#cccccc" id="path383" />
  <path
    d="m 362.88187,488.10573 0.28711,1.165 v -0.002 c 2.33887,-0.575 4.69385,-1.206 7.001,-1.872 l -0.334,-1.153 c -2.29098,0.66199 -4.62989,1.29004 -6.95411,1.862 z"
    fill="#cccccc" id="path385" />
  <path
    d="m 341.64408,491.97878 c -2.37207,0.287 -4.78223,0.529 -7.16308,0.719 l 0.0996,1.19665 c 2.397,-0.19287 4.82178,-0.43579 7.20752,-0.72369 z"
    fill="#cccccc" id="path387" />
  <path
    d="m 355.46879,139.19576 c 2.34619,0.472 4.71045,0.998 7.02734,1.563 l 0.28516,-1.166 c -2.333,-0.574 -4.71338,-1.099 -7.0752,-1.574 z"
    fill="#cccccc" id="path389" />
  <path
    d="m 348.77592,490.97578 0.19189,1.185 v -0.003 c 2.36914,-0.381 4.76807,-0.819 7.1294,-1.3 l -0.23926,-1.175 c -2.3457,0.47701 -4.72901,0.91305 -7.08203,1.29305 z"
    fill="#cccccc" id="path391" />
  <path
    d="m 305.62113,493.91274 c 2.40088,0.19 4.834,0.333 7.23389,0.427 l 0.0459,-1.203 c -2.38574,-0.093 -4.79981,-0.235 -7.186,-0.424 z"
    fill="#cccccc" id="path393" />
  <path
    d="m 433.65531,174.89174 -0.7583,0.93 c 1.8501,1.508 3.69678,3.077 5.49024,4.662 l 0.79492,-0.89905 c -1.80517,-1.59291 -3.66504,-3.17495 -5.52686,-4.69295 z"
    fill="#cccccc" id="path395" />
  <polygon points="234.581,393.895 234.577,393.895 234.581,393.898 " fill="#cccccc" id="polygon397"
    transform="translate(100,99.9997)" />
  <path
    d="m 326.90092,135.80379 c 2.3872,0.0909 4.8081,0.231 7.187,0.416 l 0.0942,-1.197 c -2.395,-0.187 -4.8291,-0.328 -7.23535,-0.419 z"
    fill="#cccccc" id="path399" />
  <path
    d="m 320.10014,493.27876 v 1.2 c 2.40185,-0.001 4.83984,-0.05 7.248,-0.145 l -0.0483,-1.2 c -2.39156,0.095 -4.81392,0.145 -7.19966,0.145 z"
    fill="#cccccc" id="path401" />
  <path
    d="m 415.5601,465.62776 0.64209,1.014 0.004,0.003 c 2.02491,-1.286 4.05567,-2.631 6.03614,-4 l -0.68213,-0.987 c -1.97119,1.36002 -3.98926,2.69602 -6,3.97 z"
    fill="#cccccc" id="path403" />
  <path
    d="m 376.70805,484.09877 0.37988,1.138 v -10e-4 c 2.28125,-0.761 4.57715,-1.581 6.82715,-2.436 l -0.42725,-1.121 c -2.23389,0.84896 -4.51465,1.66298 -6.77978,2.42 z"
    fill="#cccccc" id="path405" />
  <path
    d="m 433.05082,453.00972 c -1.855,1.516 -3.76172,3.009 -5.66162,4.44 l 0.72119,0.95789 c 1.91455,-1.43994 3.83252,-2.944 5.69971,-4.46887 z"
    fill="#cccccc" id="path407" />
  <path
    d="m 409.78812,158.43575 -0.60009,1.039 c 2.0708,1.194 4.14795,2.448 6.1709,3.726 l 0.64111,-1.014 c -2.03711,-1.28702 -4.12695,-2.55099 -6.21192,-3.751 z"
    fill="#cccccc" id="path409" />
  <polygon points="328.111,358.409 328.11,358.408 " fill="#cccccc" id="polygon411" transform="translate(100,99.9997)" />
  <path
    d="m 422.05521,166.18776 -0.68115,0.988 c 1.96582,1.355 3.93408,2.771 5.84815,4.208 l 0.7207,-0.959 c -1.92773,-1.44702 -3.90869,-2.87201 -5.8877,-4.237 z"
    fill="#cccccc" id="path413" />
  <path
    d="m 383.55814,146.02174 -0.42431,1.12305 c 2.24121,0.845 4.49414,1.748 6.70019,2.685 l 0.4668,-1.108 c -2.21973,-0.939 -4.48877,-1.84903 -6.74268,-2.70005 z"
    fill="#cccccc" id="path415" />
  <path
    d="m 390.148,479.00075 0.47119,1.1 v 0.003 c 2.209,-0.943 4.42676,-1.943 6.59082,-2.972 l -0.51611,-1.084 c -2.14601,1.02301 -4.35206,2.01599 -6.5459,2.953 z"
    fill="#cccccc" id="path417" />
  <path
    d="m 396.92875,151.69875 -0.5127,1.085 c 2.16407,1.024 4.33594,2.107 6.45508,3.217 l 0.55762,-1.063 c -2.13475,-1.11797 -4.32075,-2.208 -6.5,-3.239 z"
    fill="#cccccc" id="path419" />
  <path
    d="m 403.11478,472.82576 0.55909,1.062 0.004,10e-4 c 2.12744,-1.12 4.2583,-2.297 6.3291,-3.498 l -0.60009,-1.038 c -2.06201,1.19199 -4.17778,2.361 -6.292,3.473 z"
    fill="#cccccc" id="path421" />
  <path
    d="m 289.052,171.01523 a 1.60349,1.60349 0 0 1 -1.57935,-1.51464 l -7.3e-4,-13.96 a 1.61121,1.61121 0 0 1 1.6648,-1.53955 l 61.74731,-4.8e-4 a 1.598,1.598 0 0 1 1.64331,1.51318 l 7.3e-4,13.96094 a 1.61255,1.61255 0 0 1 -1.65332,1.53906 H 289.116 c -0.0215,10e-4 -0.0427,10e-4 -0.064,10e-4 z m 0.0354,-15.602 a 0.15886,0.15886 0 0 0 -0.1582,0.14991 l 7.3e-4,13.90869 a 0.16193,0.16193 0 0 0 0.16455,0.12451 l 61.78955,-4.9e-4 a 0.17068,0.17068 0 0 0 0.18677,-0.1499 l -7.3e-4,-13.90528 a 0.16569,0.16569 0 0 0 -0.16455,-0.12451 l -61.811,-0.003 z"
    fill="#cccccc" id="path423" />
  <path
    d="m 289.052,144.01523 a 1.60349,1.60349 0 0 1 -1.57935,-1.51464 l -7.3e-4,-13.96 a 1.61421,1.61421 0 0 1 1.6648,-1.53955 l 61.74731,-4.8e-4 a 1.60069,1.60069 0 0 1 1.64331,1.51318 l 7.3e-4,13.96094 a 1.60455,1.60455 0 0 1 -1.65332,1.53906 H 289.116 c -0.0215,10e-4 -0.0427,10e-4 -0.064,10e-4 z"
    fill="#e5e5e5" id="path425" />
  <path
    d="m 289.052,117.01523 a 1.60349,1.60349 0 0 1 -1.57935,-1.51464 l -7.3e-4,-13.96 a 1.61655,1.61655 0 0 1 1.6648,-1.53955 l 61.74731,-4.8e-4 a 1.60343,1.60343 0 0 1 1.64331,1.51318 l 7.3e-4,13.96094 a 1.61357,1.61357 0 0 1 -1.65332,1.53906 H 289.116 c -0.0215,0.001 -0.0427,0.001 -0.064,0.001 z"
    fill="#dc0030" id="path427" />
  <g id="b9b363af-5303-4c18-a23e-df3b65209469" data-name="Group 64" transform="translate(100,99.9997)">
    <rect id="e3de4c85-d1c1-42fe-a42c-c18acdd2814e" data-name="Rectangle 25" y="166.47903" width="80" height="96"
      fill="#e6e6e6" x="0" />
    <rect id="fe265eb4-d8ad-4188-b40e-9412ee773139" data-name="Rectangle 25-2" x="2.29599" y="169.43304"
      width="75.146004" height="90.175003" fill="#ffffff" />
    <rect id="e738187c-325b-4068-9a87-7b14c6a5a06e" data-name="Rectangle 31" x="8.5060101" y="184.51405"
      width="30.058001" height="3.757" fill="#e6e6e6" />
    <rect id="b4667f7c-6534-4bc0-a7af-c9425a83f984" data-name="Rectangle 32" x="8.5060101" y="197.28905" width="45.493"
      height="3.757" fill="#dc0030" />
    <rect id="bfd14e20-c4b4-4975-b104-b5d7b17119c2" data-name="Rectangle 38" x="8.5060101" y="210.06306"
      width="27.396999" height="3.757" fill="#e6e6e6" />
    <rect id="aefc8445-277c-4a0d-9a38-15f1d129f2f6" data-name="Rectangle 39" x="8.5060101" y="222.83804"
      width="57.175999" height="3.757" fill="#dc0030" />
    <rect id="b28680f7-0f2a-4f1c-a56c-8b8834e2a932" data-name="Rectangle 40" x="8.5060101" y="235.61305"
      width="57.175999" height="3.757" fill="#e6e6e6" />
  </g>
  <g id="ed001692-4e2b-40c0-8dd4-0752cad6d5fa" data-name="Group 65" transform="translate(100,99.9997)">
    <path id="e8f8166f-e1bc-41da-9765-0616df81a660-1958" data-name="Path 1011"
      d="m 389.39412,515.41282 a 1.159,1.159 0 0 0 -1.158,1.158 v 66.684 a 1.159,1.159 0 0 0 1.158,1.158 h 132.212 a 1.159,1.159 0 0 0 1.158,-1.158 v -66.684 a 1.159,1.159 0 0 0 -1.158,-1.158 z"
      transform="translate(-227.5,-155.43347)" fill="#e6e6e6" />
    <path id="ab70177d-851a-4034-849b-dc5f8bdfad9b-1959" data-name="Path 1012"
      d="m 391.247,517.26487 a 1.159,1.159 0 0 0 -1.158,1.158 v 62.98 a 1.159,1.159 0 0 0 1.158,1.158 h 128.506 a 1.159,1.159 0 0 0 1.158,-1.158 v -62.98 a 1.159,1.159 0 0 0 -1.158,-1.158 z"
      transform="translate(-227.5,-155.43347)" fill="#ffffff" />
    <path id="a6de2725-ae37-49ee-b007-49636fd70c7e-1960" data-name="Path 1013"
      d="m 429.799,557.7852 h -27.322 a 1.623,1.623 0 0 1 -1.621,-1.621 v -27.322 a 1.623,1.623 0 0 1 1.621,-1.621 h 27.322 a 1.623,1.623 0 0 1 1.621,1.621 v 27.322 a 1.623,1.623 0 0 1 -1.621,1.621 z m -27.322,-30.1 a 1.159,1.159 0 0 0 -1.158,1.158 v 27.322 a 1.159,1.159 0 0 0 1.158,1.158 h 27.322 a 1.159,1.159 0 0 0 1.158,-1.158 v -27.323 a 1.159,1.159 0 0 0 -1.158,-1.158 z"
      transform="translate(-227.5,-155.43347)" fill="#3f3d56" />
    <path id="a19aa1f8-ee50-4a31-b5b0-1f46abbb6fa5-1961" data-name="Path 1014"
      d="m 469.161,557.7852 h -27.322 a 1.623,1.623 0 0 1 -1.621,-1.621 v -27.322 a 1.623,1.623 0 0 1 1.621,-1.621 h 27.322 a 1.623,1.623 0 0 1 1.621,1.621 v 27.322 a 1.623,1.623 0 0 1 -1.621,1.621 z m -27.322,-30.1 a 1.159,1.159 0 0 0 -1.158,1.158 v 27.322 a 1.159,1.159 0 0 0 1.158,1.158 h 27.322 a 1.159,1.159 0 0 0 1.158,-1.158 v -27.323 a 1.159,1.159 0 0 0 -1.158,-1.158 z"
      transform="translate(-227.5,-155.43347)" fill="#e6e6e6" />
    <path id="a2e99a8c-7c3e-4a46-b050-978645415aa0-1962" data-name="Path 1015"
      d="m 443.923,529.7633 a 1.159,1.159 0 0 0 -1.158,1.158 v 23.154 a 1.159,1.159 0 0 0 1.158,1.158 h 23.158 a 1.159,1.159 0 0 0 1.158,-1.158 v -23.15 a 1.159,1.159 0 0 0 -1.156,-1.162 z"
      transform="translate(-227.5,-155.43347)" fill="#e6e6e6" />
    <path id="a1a7701c-a4b3-45f7-ba82-ecc014cc0ab0-1963" data-name="Path 1016"
      d="m 404.6771,529.7633 a 1.159,1.159 0 0 0 -1.158,1.158 v 23.154 a 1.159,1.159 0 0 0 1.158,1.158 h 23.154 a 1.159,1.159 0 0 0 1.158,-1.158 v -23.15 a 1.159,1.159 0 0 0 -1.158,-1.158 z"
      transform="translate(-227.5,-155.43347)" fill="#3f3d56" />
    <path id="b42d7989-02f3-4c84-ad2b-8e00dd2df745-1964" data-name="Path 1017"
      d="m 483.166,529.7633 a 1.159,1.159 0 0 0 -1.158,1.158 v 23.154 a 1.159,1.159 0 0 0 1.156,1.162 h 23.156 a 1.159,1.159 0 0 0 1.158,-1.158 v -23.154 a 1.159,1.159 0 0 0 -1.158,-1.158 z"
      transform="translate(-227.5,-155.43347)" fill="#dc0030" />
    <path id="f813e1b9-be7f-44e3-b624-f228ad519824-1965" data-name="Path 1018"
      d="m 508.52307,557.7852 h -27.317 a 1.623,1.623 0 0 1 -1.621,-1.621 v -27.322 a 1.623,1.623 0 0 1 1.621,-1.621 h 27.322 a 1.623,1.623 0 0 1 1.621,1.621 v 27.322 a 1.623,1.623 0 0 1 -1.625,1.621 z m -27.322,-30.1 a 1.159,1.159 0 0 0 -1.158,1.158 v 27.322 a 1.159,1.159 0 0 0 1.158,1.158 h 27.322 a 1.159,1.159 0 0 0 1.158,-1.158 v -27.323 a 1.159,1.159 0 0 0 -1.158,-1.158 z"
      transform="translate(-227.5,-155.43347)" fill="#dc0030" />
    <circle id="a256ee75-ac51-43d7-97e2-3db24c3be389" data-name="Ellipse 187" cx="217.00204" cy="411.15039"
      r="3.9360001" fill="#e6e6e6" opacity="0.8" style="isolation:isolate" />
    <circle id="aa825252-37aa-41e2-9a2c-ccbee99d2ef1" data-name="Ellipse 188" cx="239.23007" cy="411.15039"
      r="3.9360001" fill="#e6e6e6" opacity="0.4" style="isolation:isolate" />
    <circle id="e2e0d947-3ebc-480d-8987-97d04e023704" data-name="Ellipse 189" cx="228.11606" cy="411.15039"
      r="3.9360001" fill="#e6e6e6" opacity="0.6" style="isolation:isolate" />
    <circle id="a24995dc-8888-4773-9a89-b4343b8ccc71" data-name="Ellipse 190" cx="177.63901" cy="411.15039"
      r="3.9360001" fill="#3f3d56" opacity="0.8" style="isolation:isolate" />
    <circle id="b46cd29b-6d35-4cd2-afa1-c57a3756ab6b" data-name="Ellipse 191" cx="199.86703" cy="411.15039"
      r="3.9360001" fill="#3f3d56" opacity="0.4" style="isolation:isolate" />
    <circle id="f601e6e7-677d-43cb-b027-d603cd29d25a" data-name="Ellipse 192" cx="188.75302" cy="411.15039"
      r="3.9360001" fill="#3f3d56" opacity="0.6" style="isolation:isolate" />
    <circle id="a77d708d-bca5-43b2-b23e-dc16f9e9193a" data-name="Ellipse 193" cx="256.36411" cy="411.15039"
      r="3.9360001" fill="#dc0030" opacity="0.8" style="isolation:isolate" />
    <circle id="e63dac9c-0d6c-4c6c-9542-a36cc92b4df6" data-name="Ellipse 194" cx="278.59201" cy="411.15039"
      r="3.9360001" fill="#dc0030" opacity="0.4" style="isolation:isolate" />
    <circle id="a1090fae-2383-417d-8f76-05f45bb8b5bf" data-name="Ellipse 195" cx="267.47812" cy="411.15039"
      r="3.9360001" fill="#dc0030" opacity="0.6" style="isolation:isolate" />
  </g>
  <circle id="a3d5bffd-d54f-4a9c-b6b3-ef1fd30503af" data-name="Ellipse 18" cx="500" cy="314.47873" r="20"
    fill="#dc0030" />
  <path id="b8d1c3cf-0786-4fd7-9dbb-a868aee65219-1966" data-name="Path 1032"
    d="m 506.285,312.76278 h -4.571 v -4.57 a 1.71451,1.71451 0 1 0 -3.429,0 v 4.57 h -4.571 a 1.71451,1.71451 0 0 0 0,3.429 h 4.571 v 4.571 a 1.71451,1.71451 0 0 0 3.429,0 v -4.57 h 4.571 a 1.71451,1.71451 0 0 0 0,-3.429 z"
    fill="#ffffff" />
</svg>
