<?xml version="1.0" encoding="utf-8"?>
<!-- Generator: Adobe Illustrator 15.0.0, SVG Export Plug-In . SVG Version: 6.00 Build 0)  -->
<!DOCTYPE svg PUBLIC "-//W3C//DTD SVG 1.1//EN" "http://www.w3.org/Graphics/SVG/1.1/DTD/svg11.dtd">
<svg version="1.1" id="Calque_1" xmlns="http://www.w3.org/2000/svg" xmlns:xlink="http://www.w3.org/1999/xlink" x="0px" y="0px"
	 width="413.756px" height="183.333px" viewBox="0 0 413.756 183.333" enable-background="new 0 0 413.756 183.333"
	 xml:space="preserve">
<g>
	<path fill="#626262" d="M87.66,119.016c0.812-3.783,0.964-7.651,0.691-11.488c-0.471-6.922-1.707-12.942-4.447-19.414
		c-1.628-3.842-3.278-7.699-5.057-11.501c-0.569-1.217-1.15-2.428-1.749-3.627c-0.418-0.844-0.791-1.745-1.287-2.547
		c0,0-0.005-0.01-0.009-0.014c-0.1-0.188-2.539-4.794-3.72-11.4c1.292-1.517,9.329-6,49.022-18.999c0,0,3.804-1.175,6.071-4.458
		c0,0-45.246,15.245-55.688,15.152c0.073-1.789,0.287-3.627,0.68-5.498c1.792-1.654,11.039-6.623,55.852-20.215
		c0,0,4.222-1.214,6.851-4.537c0,0-47.839,15.161-58.763,14.901c5.287-8.544,15.924-16.607,36.033-21.434
		c0,0-65.5,8.532-42.919,59.764c0.049,0.112,0.089,0.223,0.144,0.338c0.896,2.007,1.795,3.931,2.68,5.789
		c2.102,4.418,4.102,8.43,5.748,12.209c-3.533,3.049-14.479,9.425-47.557,21.977c0,0-4.686,1.797-6.135,5.213
		c0,0,47.669-19.158,57.419-15.866c0.208,1.201,0.412,2.704,0.532,4.458c-3.573,2.729-15.839,9.219-57.188,23.697
		c0,0-5.187,1.901-6.852,5.367c0,0,49.114-18.236,63.393-17.419c-1.845,10.432-7.648,23.614-23.148,35.741
		c1.07-0.836,2.48-1.44,3.616-2.209c3.076-2.048,5.952-4.368,8.616-6.879C78.357,138.715,85.445,129.411,87.66,119.016"/>
	<path fill="#4EAD33" d="M139.701,5.137c6.951,12.584,2.378,21.99,2.378,21.99c-6.415,19.065-44.757,35.3-62.039,41.753
		c0.268,0.498,0.507,0.992,0.719,1.437c0.107,0.233,0.217,0.465,0.324,0.677c0.613,1.228,1.207,2.46,1.787,3.7
		c7.914-3.782,15.438-7.422,15.438-7.422C160.598,42.268,145.616,14.578,139.701,5.137"/>
	<path fill="#626262" d="M18.119,117.323c3.709-5.994,8.689-11.104,14.18-15.477c5.814-4.63,9.761-7.188,16.267-10.77
		c5.981-3.303,12.224-6.146,18.458-8.93c0.3-0.137,0.633-0.287,0.978-0.448c-0.889-1.868-1.793-3.8-2.705-5.844
		c-0.067-0.147-0.122-0.291-0.184-0.438c-52.896,22.79-56.1,51.233-56.1,51.233c-6.369,33.794,43.974,47.864,43.974,47.864
		C-5.75,149.599,18.119,117.323,18.119,117.323"/>
	<path fill="#4EAD33" d="M18.119,117.323c3.709-5.994,8.689-11.104,14.18-15.477c5.814-4.63,9.761-7.188,16.267-10.77
		c5.981-3.303,12.224-6.146,18.458-8.93c0.3-0.137,0.633-0.287,0.978-0.448c-0.889-1.868-1.793-3.8-2.705-5.844
		c-0.067-0.147-0.122-0.291-0.184-0.438c-52.896,22.79-56.1,51.233-56.1,51.233c-6.369,33.794,43.974,47.864,43.974,47.864
		C-5.75,149.599,18.119,117.323,18.119,117.323"/>
	<path fill="#626262" d="M138.243,87.506c-5.652,0-9.737,1.567-12.251,4.705c-2.517,3.139-3.773,7.43-3.773,12.876
		c0,2.644,0.311,5.043,0.933,7.193c0.623,2.153,1.556,4.008,2.8,5.562c1.246,1.557,2.802,2.762,4.668,3.618
		c1.867,0.854,4.045,1.281,6.535,1.281c1.347,0,2.501-0.024,3.461-0.076s1.802-0.155,2.528-0.312v-18.747h12.135v26.682
		c-1.453,0.571-3.786,1.18-7.001,1.827c-3.216,0.648-7.183,0.974-11.901,0.974c-4.046,0-7.715-0.623-11.008-1.867
		c-3.294-1.245-6.106-3.059-8.439-5.446c-2.334-2.384-4.137-5.313-5.407-8.789c-1.272-3.473-1.906-7.441-1.906-11.9
		c0-4.513,0.7-8.506,2.1-11.98c1.401-3.474,3.319-6.417,5.757-8.829c2.437-2.412,5.301-4.241,8.595-5.484
		c3.293-1.246,6.807-1.868,10.541-1.868c2.54,0,4.835,0.17,6.884,0.506c2.048,0.339,3.812,0.727,5.29,1.167
		c1.478,0.441,2.696,0.895,3.656,1.361c0.959,0.468,1.646,0.83,2.061,1.089l-3.5,9.724c-1.661-0.881-3.567-1.646-5.717-2.294
		C143.131,87.831,140.784,87.506,138.243,87.506"/>
	<polygon fill="#626262" points="166.558,132.079 166.558,78.171 202.963,78.171 202.963,88.361 178.694,88.361 178.694,98.94 
		200.24,98.94 200.24,108.896 178.694,108.896 178.694,121.889 204.753,121.889 204.753,132.079 	"/>
	<path fill="#626262" d="M249.868,132.079c-3.477-6.171-7.234-12.265-11.279-18.279c-4.045-6.017-8.35-11.695-12.914-17.036v35.315
		h-11.979V78.171h9.879c1.711,1.711,3.604,3.812,5.68,6.301c2.073,2.489,4.187,5.147,6.339,7.974
		c2.151,2.826,4.29,5.757,6.417,8.789c2.127,3.033,4.123,5.951,5.991,8.753V78.171h12.055v53.907H249.868z"/>
	<path fill="#626262" d="M290.474,132.778c-2.957,0-5.9-0.09-8.83-0.271c-2.93-0.183-5.978-0.608-9.14-1.283V78.948
		c2.489-0.465,5.212-0.816,8.167-1.049c2.957-0.233,5.705-0.351,8.246-0.351c3.423,0,6.573,0.247,9.451,0.739
		c2.879,0.495,5.354,1.336,7.43,2.529c2.073,1.193,3.694,2.762,4.861,4.706c1.167,1.945,1.751,4.344,1.751,7.196
		c0,4.305-2.075,7.7-6.224,10.188c3.423,1.299,5.756,3.062,7.001,5.289c1.244,2.232,1.866,4.746,1.866,7.547
		c0,5.653-2.06,9.907-6.183,12.758C304.748,131.353,298.614,132.778,290.474,132.778 M284.328,99.33h5.912
		c3.733,0,6.403-0.479,8.012-1.438c1.607-0.959,2.411-2.502,2.411-4.629c0-2.178-0.829-3.706-2.488-4.59
		c-1.661-0.88-4.098-1.322-7.312-1.322c-1.038,0-2.152,0.012-3.346,0.04c-1.192,0.026-2.255,0.091-3.188,0.193V99.33z
		 M284.328,108.587v13.924c0.882,0.104,1.839,0.181,2.878,0.232c1.036,0.053,2.179,0.078,3.423,0.078c3.63,0,6.56-0.518,8.789-1.556
		c2.23-1.037,3.346-2.955,3.346-5.756c0-2.49-0.934-4.266-2.801-5.329c-1.866-1.062-4.538-1.594-8.012-1.594H284.328z"/>
	<path fill="#626262" d="M360.165,132.078c-0.601-1.871-1.245-3.797-1.935-5.77c-0.691-1.974-1.378-3.942-2.063-5.897h-21.054
		c-0.681,1.967-1.363,3.938-2.048,5.911c-0.683,1.978-1.32,3.897-1.908,5.756h-12.604c2.029-5.807,3.953-11.174,5.773-16.101
		c1.822-4.926,3.602-9.569,5.345-13.924c1.742-4.357,3.46-8.492,5.15-12.408c1.69-3.914,3.447-7.74,5.268-11.474h11.503
		c1.771,3.734,3.516,7.56,5.236,11.474c1.719,3.916,3.452,8.051,5.195,12.408c1.747,4.354,3.531,8.998,5.354,13.924
		c1.823,4.927,3.751,10.294,5.782,16.101H360.165z M345.586,90.384c-0.271,0.783-0.667,1.849-1.188,3.193
		c-0.521,1.35-1.114,2.907-1.78,4.673c-0.667,1.767-1.412,3.712-2.234,5.834c-0.823,2.124-1.659,4.351-2.508,6.681h15.415
		c-0.825-2.337-1.624-4.571-2.397-6.701c-0.772-2.129-1.509-4.077-2.204-5.845s-1.307-3.322-1.832-4.669
		C346.332,92.206,345.907,91.15,345.586,90.384"/>
</g>
<g>
	<path fill="#767575" d="M379.083,130.267c0-0.279,0.052-0.542,0.155-0.79c0.103-0.248,0.244-0.464,0.425-0.65
		c0.181-0.186,0.396-0.333,0.643-0.441c0.248-0.108,0.516-0.163,0.805-0.163c0.279,0,0.542,0.054,0.79,0.163
		c0.247,0.108,0.464,0.255,0.649,0.441c0.186,0.186,0.333,0.402,0.441,0.65s0.162,0.511,0.162,0.79c0,0.289-0.054,0.557-0.162,0.805
		c-0.108,0.247-0.256,0.464-0.441,0.649c-0.186,0.187-0.402,0.331-0.649,0.434c-0.248,0.104-0.511,0.155-0.79,0.155
		c-0.289,0-0.557-0.052-0.805-0.155c-0.247-0.103-0.462-0.247-0.643-0.434c-0.181-0.186-0.322-0.402-0.425-0.649
		C379.135,130.823,379.083,130.556,379.083,130.267z"/>
	<path fill="#767575" d="M387.92,132.077v-13.249l-1.641-0.201c-0.237-0.052-0.431-0.137-0.58-0.255s-0.225-0.292-0.225-0.519V116.6
		h2.445v-1.424c0-0.897,0.129-1.697,0.387-2.399s0.627-1.297,1.107-1.788c0.479-0.49,1.057-0.861,1.733-1.114
		c0.676-0.253,1.437-0.379,2.282-0.379c0.712,0,1.367,0.104,1.966,0.31l-0.062,1.517c-0.011,0.134-0.052,0.235-0.124,0.302
		s-0.168,0.116-0.286,0.147c-0.119,0.031-0.264,0.049-0.434,0.054s-0.354,0.008-0.55,0.008c-0.464,0-0.888,0.057-1.269,0.17
		c-0.382,0.114-0.707,0.305-0.976,0.573c-0.269,0.269-0.475,0.622-0.619,1.06c-0.145,0.439-0.217,0.983-0.217,1.633v1.331h4.411
		v2.198h-4.317v13.279H387.92z"/>
	<path fill="#767575" d="M400.642,119.37c0.506-1.032,1.115-1.842,1.827-2.43c0.712-0.588,1.568-0.882,2.569-0.882
		c0.34,0,0.662,0.039,0.967,0.116c0.305,0.077,0.57,0.193,0.797,0.348l-0.201,2.275c-0.072,0.278-0.242,0.417-0.511,0.417
		c-0.145,0-0.361-0.028-0.649-0.085c-0.289-0.057-0.599-0.085-0.929-0.085c-0.485,0-0.913,0.069-1.285,0.209
		c-0.371,0.139-0.704,0.346-0.998,0.619c-0.294,0.274-0.555,0.609-0.781,1.006c-0.228,0.397-0.439,0.849-0.635,1.354v9.844h-3.019
		v-15.725h1.733c0.33,0,0.555,0.06,0.674,0.178c0.118,0.119,0.203,0.328,0.255,0.627L400.642,119.37z"/>
</g>
</svg>
