<svg width="103" height="24" viewBox="0 0 103 24" fill="none" xmlns="http://www.w3.org/2000/svg">
<path d="M61.1762 3.475H55.5762V18.668H51.0762V3.475H45.5762V0H61.1762V3.475ZM68.5352 18.668C68.3432 18.2736 68.2053 17.8552 68.1252 17.424C67.7277 17.9199 67.2182 18.3144 66.6387 18.5751C66.0591 18.8359 65.4259 18.9555 64.7912 18.924C63.5717 18.9557 62.3839 18.5334 61.4582 17.739C61.0193 17.3777 60.6678 16.922 60.4297 16.4058C60.1916 15.8896 60.0731 15.3263 60.0832 14.758C60.0459 14.094 60.1799 13.4315 60.4723 12.8342C60.7647 12.2369 61.2058 11.7248 61.7532 11.347C63.2168 10.4865 64.9048 10.0846 66.5992 10.193H67.9332V9.459C67.9332 8.179 67.3818 7.539 66.2792 7.539C66.0716 7.50804 65.8597 7.52584 65.6601 7.59098C65.4606 7.65612 65.279 7.76681 65.1297 7.91429C64.9804 8.06176 64.8674 8.24198 64.7998 8.44067C64.7322 8.63935 64.7118 8.85105 64.7402 9.059H60.4192C60.4107 8.41538 60.5629 7.7798 60.8618 7.20974C61.1607 6.63967 61.597 6.1531 62.1312 5.794C63.4127 4.91502 64.9445 4.47472 66.4972 4.539C68.0045 4.45506 69.4919 4.91455 70.6892 5.834C71.2008 6.27038 71.6081 6.81588 71.8812 7.43039C72.1543 8.04491 72.2862 8.71281 72.2672 9.385V15.527C72.2267 16.5345 72.429 17.5371 72.8572 18.45V18.668H68.5352ZM65.8302 15.847C66.3011 15.8652 66.7669 15.7449 67.1702 15.501C67.487 15.3097 67.7497 15.0405 67.9332 14.719V12.501H66.6762C65.1715 12.501 64.4192 13.1763 64.4192 14.527C64.4129 14.7056 64.4454 14.8835 64.5144 15.0484C64.5835 15.2132 64.6875 15.3612 64.8192 15.482C65.0963 15.7298 65.4587 15.8606 65.8302 15.847V15.847ZM87.5372 11.834C87.6319 13.6673 87.1209 15.4808 86.0832 16.995C85.636 17.6136 85.0438 18.1131 84.3586 18.4496C83.6734 18.7861 82.9161 18.9493 82.1532 18.925C81.5585 18.9399 80.9679 18.822 80.4245 18.5798C79.8812 18.3376 79.3987 17.9772 79.0122 17.525V24H74.6902V4.795H78.7292L78.8572 6.075C79.2431 5.57998 79.7401 5.18272 80.308 4.91537C80.8759 4.64801 81.4987 4.51805 82.1262 4.536C82.8948 4.50079 83.6602 4.6548 84.3554 4.98451C85.0506 5.31421 85.6541 5.80954 86.1132 6.427C87.1413 7.95905 87.6409 9.78494 87.5362 11.627L87.5372 11.834ZM83.2162 11.565C83.2162 9.103 82.4982 7.872 81.0622 7.872C80.6488 7.82336 80.2305 7.90276 79.8637 8.09947C79.4969 8.29619 79.1993 8.60075 79.0112 8.972V14.437C79.2 14.8157 79.4989 15.1286 79.8687 15.3345C80.2384 15.5404 80.6617 15.6298 81.0832 15.591C82.4592 15.591 83.1685 14.403 83.2112 12.027L83.2162 11.565ZM96.1532 18.925C95.209 18.9665 94.266 18.8199 93.3789 18.4937C92.4919 18.1676 91.6785 17.6683 90.9862 17.025C90.3284 16.3823 89.8128 15.6088 89.4726 14.7545C89.1324 13.9001 88.9752 12.9839 89.0112 12.065V11.706C88.9849 10.41 89.2548 9.125 89.8002 7.949C90.2955 6.89673 91.0972 6.01868 92.1002 5.43C93.1943 4.81407 94.435 4.50616 95.6902 4.539C96.5444 4.49517 97.3981 4.63434 98.1942 4.94719C98.9903 5.26003 99.7103 5.73933 100.306 6.353C101.504 7.75627 102.111 9.56931 102 11.411V13.091H93.4102C93.5261 13.8006 93.884 14.4483 94.4232 14.924C94.9946 15.3859 95.7151 15.623 96.4492 15.591C97.0585 15.6201 97.6661 15.5053 98.2227 15.2558C98.7794 15.0063 99.2695 14.6292 99.6532 14.155L101.628 16.489C101.037 17.2742 100.247 17.8874 99.3392 18.265C98.336 18.7084 97.25 18.9334 96.1532 18.925V18.925ZM95.6662 7.875C94.3995 7.875 93.6472 8.71267 93.4092 10.388H97.7682V10.055C97.7945 9.76513 97.7615 9.47293 97.671 9.19628C97.5806 8.91962 97.4347 8.66433 97.2422 8.446C97.033 8.24731 96.7851 8.09401 96.5139 7.99575C96.2426 7.89749 95.954 7.85638 95.6662 7.875V7.875Z" fill="#0E1318"/>
<path d="M32.1436 18.6659H9.33496C6.85999 18.6638 4.48747 17.6795 2.7373 15.9296C0.98714 14.1796 0.00238321 11.8069 0 9.33191C0.00317678 6.85736 0.988231 4.48569 2.73828 2.73621C4.48833 0.986719 6.86042 0.00225934 9.33496 -0.00012207C11.809 0.00305315 14.1813 0.986804 15.9307 2.73621C17.6801 4.48561 18.6638 6.85788 18.667 9.33191C18.6759 11.1772 18.1282 12.9821 17.0957 14.5116H24.3838C23.3558 12.98 22.8095 11.1765 22.8135 9.33191C22.8164 6.85798 23.7996 4.48564 25.5488 2.73621C27.2981 0.986776 29.6696 0.0030537 32.1436 -0.00012207C34.6163 0.00385067 36.9869 0.988615 38.7344 2.73816C40.4819 4.4877 41.4638 6.85914 41.4648 9.33191C41.4646 11.8051 40.4829 14.1776 38.7354 15.9276C36.9878 17.6776 34.6168 18.6622 32.1436 18.6659ZM32.1436 4.15417C30.7692 4.15364 29.4513 4.69891 28.4785 5.6698C27.5057 6.64069 26.9582 7.95754 26.9561 9.33191C26.9568 10.7079 27.5039 12.0266 28.4766 12.9999C29.4492 13.9731 30.7676 14.5217 32.1436 14.5233C33.5185 14.5207 34.8364 13.9731 35.8076 12.9999C36.7788 12.0266 37.3245 10.7068 37.3242 9.33191C37.3232 7.9586 36.7769 6.64264 35.8057 5.67175C34.8344 4.70086 33.5169 4.1547 32.1436 4.15417ZM9.33496 4.15417C7.96165 4.1547 6.64509 4.70086 5.67383 5.67175C4.70256 6.64264 4.15633 7.9586 4.15527 9.33191C4.15501 10.7068 4.69972 12.0266 5.6709 12.9999C6.64208 13.9731 7.96005 14.5207 9.33496 14.5233C10.7096 14.5204 12.0272 13.9712 12.998 12.9979C13.9689 12.0247 14.5132 10.7066 14.5127 9.33191C14.5119 7.95886 13.966 6.64264 12.9951 5.67175C12.0242 4.70086 10.708 4.15497 9.33496 4.15417Z" fill="#0071BB"/>
</svg>
